<svg viewBox="0 0 34 33" xmlns="http://www.w3.org/2000/svg">
    <path id="Rectangle" d="M34,16.5C34,7.393 26.607,0 17.5,0L16.5,0C7.393,0 0,7.393 0,16.5C0,25.607 7.393,33 16.5,33L17.5,33C26.607,33 34,25.607 34,16.5Z" style="fill:rgb(247,255,249);"/>
    <path d="M25.318,25.929C24.952,26.272 24.47,26.465 23.968,26.469C23.436,26.472 22.925,26.255 22.558,25.869L16.918,19.989L11.388,25.989C11.005,26.39 10.473,26.615 9.918,26.609C9.426,26.605 8.953,26.42 8.588,26.089C7.832,25.335 7.801,24.12 8.518,23.329L14.208,17.159L8.458,11.159C7.973,10.357 8.109,9.327 8.786,8.679C9.463,8.031 10.499,7.939 11.278,8.459L16.858,14.289L22.328,8.359C23.099,7.822 24.138,7.894 24.828,8.531C25.518,9.167 25.672,10.198 25.198,11.009L19.568,17.109L25.378,23.169C26.098,23.957 26.072,25.172 25.318,25.929Z" style="fill:rgb(0,82,149);fill-rule:nonzero;"/>
</svg>
