<?xml version="1.0" encoding="UTF-8" standalone="no"?>
<!DOCTYPE svg PUBLIC "-//W3C//DTD SVG 1.1//EN" "http://www.w3.org/Graphics/SVG/1.1/DTD/svg11.dtd">
<svg width="100%" height="100%" viewBox="0 0 42 38" version="1.1" xmlns="http://www.w3.org/2000/svg" xmlns:xlink="http://www.w3.org/1999/xlink" xml:space="preserve" xmlns:serif="http://www.serif.com/" style="fill-rule:evenodd;clip-rule:evenodd;stroke-linejoin:round;stroke-miterlimit:2;">
    <g id="Welcome">
        <path d="M1.223,30.016C0.867,30.37 0.867,30.991 1.223,31.346L7.645,37.734C8.002,38.089 8.626,38.089 8.983,37.734L12.416,34.318L4.657,26.6L1.223,30.016Z" style="fill:rgb(143,199,194);fill-rule:nonzero;"/>
        <path d="M41.622,22.837C41.139,22.168 40.306,21.81 39.516,21.944L32.715,23.105C32.715,23.284 32.671,23.418 32.671,23.597C32.32,25.428 30.784,26.812 28.942,26.946L28.503,26.991C26.09,27.125 23.633,27.08 21.176,26.812L19.201,26.589C18.587,26.544 18.148,25.964 18.192,25.338C18.236,24.713 18.806,24.267 19.42,24.311L21.395,24.535C23.676,24.758 26.046,24.803 28.327,24.669L28.766,24.624C29.6,24.579 30.302,23.954 30.477,23.105C30.565,22.614 30.477,22.078 30.17,21.676C29.863,21.274 29.468,20.962 28.985,20.872L18.675,19.086C17.534,18.863 16.305,19.086 15.296,19.622L5.731,24.758L13.717,32.886L22.316,34.985C23.808,35.342 25.388,35.119 26.748,34.315L40.92,26.008C41.446,25.696 41.841,25.204 41.973,24.579C42.104,23.954 41.973,23.329 41.622,22.837Z" style="fill:rgb(143,199,194);fill-rule:nonzero;"/>
        <path d="M26.841,16.861C29.156,17.337 31.649,16.384 33.608,14.781C35.211,15.734 36.814,16.904 38.328,18.377C38.951,18.984 39.886,19.157 40.687,18.854C40.999,18.724 41.266,18.551 41.489,18.334C42.29,17.467 42.157,16.124 41.311,15.344C36.146,10.231 30.135,8.152 26.351,7.328C27.642,7.198 31.338,6.982 35.879,8.152C36.68,8.368 37.437,7.675 37.304,6.895C37.215,6.419 37.081,5.942 36.814,5.509C33.742,-0.167 25.015,3.472 16.957,0.093C16.022,-0.297 14.998,0.612 15.354,1.566C17.313,7.025 21.854,15.821 26.841,16.861Z" style="fill:rgb(143,199,194);fill-rule:nonzero;"/>
    </g>
</svg>
