<svg viewBox="0 0 178 124" xmlns="http://www.w3.org/2000/svg">
    <path d="M139.92,44.275C144.54,27.105 155.762,20.281 169.403,16.319C170.723,15.878 170.503,14.558 170.503,14.558L168.303,0.91C168.303,0.91 168.083,-0.191 166.323,0.029C119.238,5.312 87.334,41.193 93.275,84.779C98.775,114.936 122.318,126.603 144.1,123.521C165.883,119.999 180.844,99.747 177.544,77.955C174.684,58.803 158.402,45.155 139.92,44.275ZM47.268,44.275C51.668,27.105 63.33,20.281 76.751,16.319C78.071,15.878 77.851,14.558 77.851,14.558L75.871,0.91C75.871,0.91 75.651,-0.191 73.891,0.029C26.586,5.312 -4.878,41.193 0.623,84.779C6.344,114.936 30.106,126.603 51.668,123.521C73.451,119.999 88.412,99.747 84.892,77.955C82.032,58.583 65.97,44.935 47.268,44.275Z" style="fill:#8fc7c2;fill-opacity:0.4;fill-rule:nonzero;"/>
</svg>
