<svg viewBox="0 0 20 20" version="1.1" xmlns="http://www.w3.org/2000/svg" style="fill-rule:evenodd;clip-rule:evenodd;stroke-linejoin:round;stroke-miterlimit:2;">
    <path  d="M0,10C0,15.523 4.477,20 10,20C15.523,20 20,15.523 20,10C20,4.477 15.523,0 10,0C4.477,0 0,4.477 0,10ZM16.514,10.687C16.504,10.7 16.495,10.713 16.484,10.726C16.465,10.749 16.444,10.771 16.422,10.794C16.421,10.795 16.42,10.796 16.42,10.796L11.423,15.793C10.983,16.233 10.271,16.233 9.832,15.793C9.392,15.354 9.392,14.641 9.832,14.202L12.909,11.125L4.375,11.125C3.754,11.125 3.25,10.621 3.25,10C3.25,9.379 3.754,8.875 4.375,8.875L12.909,8.875L9.832,5.798C9.392,5.359 9.392,4.646 9.832,4.206C10.271,3.768 10.983,3.768 11.422,4.206L16.42,9.204C16.444,9.228 16.465,9.251 16.485,9.276C16.494,9.286 16.502,9.296 16.51,9.306C16.516,9.314 16.523,9.324 16.528,9.332C16.667,9.519 16.75,9.749 16.75,10C16.75,10.251 16.667,10.482 16.528,10.669C16.524,10.675 16.519,10.681 16.514,10.687Z" style="fill-rule:nonzero;"/>
</svg>
