<svg viewBox="0 0 24 25" xmlns="http://www.w3.org/2000/svg" style="fill-rule:evenodd;clip-rule:evenodd;stroke-linejoin:round;stroke-miterlimit:2;">
    <path d="M2.495,17.876C2.048,17.876 1.681,17.508 1.681,17.061L1.681,7.203L18.144,7.203L18.144,11.909L18.276,11.909C18.801,11.909 19.3,11.961 19.772,12.066L19.772,4.522C19.772,3.155 18.67,2.05 17.304,2.05L15.519,2.05L15.519,0.736C15.519,0.342 15.204,0 14.783,0L12.972,0C12.578,0 12.236,0.315 12.236,0.736L12.236,2.05L7.536,2.05L7.536,0.736C7.536,0.342 7.221,0 6.801,0L4.989,0C4.595,0 4.254,0.315 4.254,0.736L4.254,2.05L2.468,2.05C1.103,2.05 0,3.155 0,4.522L0,17.061C0,18.428 1.103,19.532 2.468,19.532L10.897,19.532L10.897,19.269C10.897,18.796 10.95,18.323 11.028,17.876L2.495,17.876Z" style="fill:rgb(73,134,140);fill-rule:nonzero;"/>
    <path id="Path1" d="M13.47,9.227C13.155,9.227 12.919,9.464 12.919,9.779L12.919,11.278C12.919,11.593 13.155,11.83 13.47,11.83L15.545,11.83C15.86,11.83 16.096,11.593 16.096,11.278L16.096,9.779C16.096,9.464 15.86,9.227 15.545,9.227L13.47,9.227Z" style="fill:rgb(73,134,140);fill-rule:nonzero;"/>
    <path id="Path2" d="M10.95,9.227L8.875,9.227C8.56,9.227 8.324,9.464 8.324,9.779L8.324,11.278C8.324,11.593 8.56,11.83 8.875,11.83L10.95,11.83C11.265,11.83 11.501,11.593 11.501,11.278L11.501,9.779C11.501,9.464 11.265,9.227 10.95,9.227Z" style="fill:rgb(73,134,140);fill-rule:nonzero;"/>
    <path id="Path3" d="M10.95,13.275L8.875,13.275C8.56,13.275 8.324,13.512 8.324,13.828L8.324,15.326C8.324,15.641 8.56,15.878 8.875,15.878L10.95,15.878C11.265,15.878 11.501,15.641 11.501,15.326L11.501,13.828C11.501,13.512 11.265,13.275 10.95,13.275Z" style="fill:rgb(73,134,140);fill-rule:nonzero;"/>
    <path id="Path4" d="M6.932,9.779C6.932,9.464 6.696,9.227 6.381,9.227L4.306,9.227C3.991,9.227 3.755,9.464 3.755,9.779L3.755,11.278C3.755,11.593 3.991,11.83 4.306,11.83L6.381,11.83C6.696,11.83 6.932,11.593 6.932,11.278L6.932,9.779Z" style="fill:rgb(73,134,140);fill-rule:nonzero;"/>
    <path id="Path5" d="M6.381,13.275L4.306,13.275C3.991,13.275 3.755,13.512 3.755,13.828L3.755,15.326C3.755,15.641 3.991,15.878 4.306,15.878L6.381,15.878C6.696,15.878 6.932,15.641 6.932,15.326L6.932,13.828C6.932,13.512 6.67,13.275 6.381,13.275Z" style="fill:rgb(73,134,140);fill-rule:nonzero;"/>
    <path id="Shape" d="M18.276,13.538C15.125,13.538 12.551,16.115 12.551,19.269C12.551,22.424 15.125,25 18.276,25C21.427,25 24,22.424 24,19.269C24,16.115 21.453,13.538 18.276,13.538ZM20.639,20.084L18.302,20.084C17.856,20.084 17.488,19.716 17.488,19.269L17.488,16.483C17.488,16.036 17.856,15.668 18.302,15.668C18.748,15.668 19.116,16.036 19.116,16.483L19.116,18.454L20.639,18.454C21.085,18.454 21.453,18.822 21.453,19.269C21.453,19.716 21.085,20.084 20.639,20.084Z" style="fill:rgb(73,134,140);fill-rule:nonzero;"/>
</svg>
