<svg viewBox="0 0 189 122" version="1.1" xmlns="http://www.w3.org/2000/svg" style="fill-rule:evenodd;clip-rule:evenodd;stroke-linejoin:round;stroke-miterlimit:2;">
    <path d="M9.414,89.698L3.474,95.723L3.474,103.368L0.401,103.368L0.401,74.283L3.474,74.283L3.474,91.859L20.545,74.283L24.076,74.283L11.491,87.454L24.948,103.368L21.293,103.368L9.414,89.698Z" style="fill:rgb(0,82,149);fill-rule:nonzero;"/>
    <path d="M47.846,93.355L29.57,93.355C29.736,95.64 30.608,97.468 32.187,98.839C33.765,100.252 35.759,100.958 38.168,100.958C39.538,100.958 40.785,100.709 41.906,100.21C43.027,99.753 44.024,99.047 44.855,98.091L46.516,100.003C45.561,101.166 44.315,102.039 42.903,102.662C41.449,103.285 39.829,103.576 38.085,103.576C35.842,103.576 33.848,103.077 32.145,102.122C30.401,101.166 29.03,99.878 28.075,98.174C27.119,96.471 26.621,94.56 26.621,92.44C26.621,90.321 27.078,88.41 28.033,86.707C28.947,85.003 30.235,83.715 31.854,82.759C33.474,81.804 35.26,81.347 37.296,81.347C39.331,81.347 41.117,81.804 42.737,82.759C44.357,83.715 45.603,85.003 46.516,86.665C47.43,88.369 47.887,90.28 47.887,92.44L47.846,93.355ZM37.296,83.881C35.177,83.881 33.433,84.546 32.021,85.876C30.567,87.247 29.778,88.992 29.57,91.152L45.063,91.152C44.855,88.992 44.066,87.247 42.654,85.876C41.2,84.546 39.414,83.881 37.296,83.881Z" style="fill:rgb(0,82,149);fill-rule:nonzero;"/>
    <path d="M72.363,81.513L61.439,105.986C60.567,108.022 59.529,109.476 58.366,110.349C57.203,111.221 55.79,111.637 54.17,111.637C53.132,111.637 52.135,111.47 51.221,111.138C50.308,110.806 49.518,110.307 48.854,109.642L50.225,107.44C51.346,108.562 52.675,109.102 54.212,109.102C55.209,109.102 56.081,108.811 56.787,108.271C57.493,107.731 58.116,106.775 58.739,105.446L59.695,103.327L49.934,81.513L53.007,81.513L61.231,100.086L69.455,81.513L72.363,81.513Z" style="fill:rgb(0,82,149);fill-rule:nonzero;"/>
    <path d="M82.634,103.576C80.848,103.576 79.186,103.327 77.566,102.786C75.947,102.288 74.659,101.665 73.745,100.875L75.074,98.548C75.988,99.255 77.151,99.836 78.522,100.293C79.892,100.751 81.346,101 82.841,101C84.835,101 86.33,100.667 87.286,100.044C88.241,99.421 88.698,98.548 88.698,97.426C88.698,96.637 88.449,95.972 87.909,95.515C87.369,95.058 86.704,94.726 85.915,94.476C85.126,94.269 84.046,94.019 82.717,93.812C80.931,93.479 79.519,93.147 78.439,92.773C77.359,92.44 76.445,91.859 75.697,91.028C74.908,90.197 74.534,89.033 74.534,87.579C74.534,85.751 75.282,84.255 76.819,83.092C78.356,81.928 80.474,81.347 83.174,81.347C84.586,81.347 85.998,81.513 87.41,81.887C88.823,82.302 89.986,82.759 90.899,83.383L89.612,85.751C87.826,84.504 85.666,83.881 83.174,83.881C81.305,83.881 79.851,84.214 78.937,84.878C77.982,85.543 77.483,86.416 77.483,87.496C77.483,88.327 77.774,88.992 78.314,89.49C78.854,89.989 79.519,90.363 80.308,90.571C81.097,90.82 82.218,91.069 83.631,91.319C85.375,91.651 86.787,91.983 87.826,92.316C88.864,92.648 89.778,93.23 90.526,94.019C91.273,94.809 91.647,95.931 91.647,97.343C91.647,99.255 90.858,100.751 89.279,101.872C87.66,102.994 85.458,103.576 82.634,103.576Z" style="fill:rgb(0,82,149);fill-rule:nonzero;"/>
    <path d="M109.103,102.039C108.563,102.537 107.857,102.911 107.068,103.16C106.237,103.451 105.365,103.576 104.493,103.576C102.457,103.576 100.879,103.036 99.758,101.914C98.636,100.792 98.096,99.255 98.096,97.219L98.096,84.006L94.192,84.006L94.192,81.513L98.096,81.513L98.096,76.735L101.045,76.735L101.045,81.513L107.691,81.513L107.691,84.006L101.045,84.006L101.045,97.053C101.045,98.341 101.378,99.338 102.042,100.003C102.665,100.709 103.62,101.041 104.825,101.041C105.448,101.041 106.03,100.958 106.611,100.751C107.151,100.543 107.649,100.293 108.065,99.92L109.103,102.039Z" style="fill:rgb(0,82,149);fill-rule:nonzero;"/>
    <path d="M123.112,103.576C120.994,103.576 119.125,103.077 117.422,102.122C115.719,101.166 114.39,99.878 113.435,98.174C112.479,96.471 111.981,94.56 111.981,92.44C111.981,90.321 112.479,88.41 113.435,86.707C114.39,85.003 115.719,83.715 117.422,82.759C119.125,81.804 120.994,81.347 123.112,81.347C125.231,81.347 127.1,81.804 128.803,82.759C130.506,83.715 131.835,85.003 132.79,86.707C133.745,88.41 134.202,90.321 134.202,92.44C134.202,94.56 133.745,96.471 132.79,98.174C131.835,99.878 130.506,101.166 128.803,102.122C127.1,103.077 125.231,103.576 123.112,103.576ZM123.112,100.958C124.649,100.958 126.061,100.584 127.307,99.878C128.512,99.213 129.467,98.174 130.173,96.886C130.879,95.598 131.212,94.102 131.212,92.44C131.212,90.778 130.879,89.283 130.173,87.995C129.467,86.707 128.512,85.668 127.307,84.961C126.061,84.255 124.649,83.923 123.112,83.923C121.576,83.923 120.163,84.255 118.959,84.961C117.713,85.668 116.757,86.707 116.051,87.995C115.345,89.283 114.971,90.778 114.971,92.44C114.971,94.102 115.345,95.598 116.051,96.886C116.757,98.174 117.713,99.213 118.959,99.878C120.163,100.584 121.576,100.958 123.112,100.958Z" style="fill:rgb(0,82,149);fill-rule:nonzero;"/>
    <path d="M151.866,81.347C154.607,81.347 156.809,82.136 158.429,83.715C160.048,85.335 160.838,87.662 160.838,90.695L160.838,103.368L157.889,103.368L157.889,90.986C157.889,88.701 157.307,86.997 156.186,85.792C155.064,84.587 153.444,84.006 151.326,84.006C148.958,84.006 147.131,84.712 145.76,86.083C144.39,87.496 143.683,89.449 143.683,91.9L143.683,103.368L140.734,103.368L140.734,81.513L143.559,81.513L143.559,85.543C144.348,84.214 145.47,83.175 146.923,82.427C148.335,81.721 149.997,81.347 151.866,81.347Z" style="fill:rgb(0,82,149);fill-rule:nonzero;"/>
    <path d="M188.47,93.355L170.195,93.355C170.361,95.64 171.233,97.468 172.811,98.839C174.39,100.252 176.383,100.958 178.792,100.958C180.163,100.958 181.409,100.709 182.531,100.21C183.652,99.753 184.649,99.047 185.48,98.091L187.141,100.003C186.186,101.166 184.94,102.039 183.528,102.662C182.074,103.285 180.454,103.576 178.709,103.576C176.466,103.576 174.473,103.077 172.77,102.122C171.025,101.166 169.655,99.878 168.699,98.174C167.744,96.471 167.246,94.56 167.246,92.44C167.246,90.321 167.703,88.41 168.658,86.707C169.572,85.003 170.859,83.715 172.479,82.759C174.099,81.804 175.885,81.347 177.92,81.347C179.955,81.347 181.741,81.804 183.361,82.759C184.981,83.715 186.227,85.003 187.141,86.665C188.055,88.369 188.512,90.28 188.512,92.44L188.47,93.355ZM177.92,83.881C175.802,83.881 174.057,84.546 172.645,85.876C171.191,87.247 170.402,88.992 170.195,91.152L185.687,91.152C185.48,88.992 184.691,87.247 183.278,85.876C181.825,84.546 180.039,83.881 177.92,83.881Z" style="fill:rgb(0,82,149);fill-rule:nonzero;"/>
    <path d="M79.908,111.838L79.908,119.714L79.087,119.714L79.087,116.08L74.16,116.08L74.16,119.714L73.328,119.714L73.328,111.838L74.16,111.838L74.16,115.349L79.087,115.349L79.087,111.838L79.908,111.838Z" style="fill:rgb(153,139,126);fill-rule:nonzero;"/>
    <path d="M87.667,117.003L82.718,117.003C82.763,117.622 82.999,118.117 83.427,118.488C83.854,118.87 84.394,119.062 85.046,119.062C85.417,119.062 85.755,118.994 86.058,118.859C86.362,118.735 86.632,118.544 86.857,118.285L87.307,118.803C87.048,119.118 86.711,119.354 86.328,119.523C85.935,119.692 85.496,119.771 85.024,119.771C84.416,119.771 83.876,119.636 83.415,119.377C82.943,119.118 82.572,118.769 82.313,118.308C82.054,117.847 81.919,117.329 81.919,116.755C81.919,116.181 82.043,115.664 82.302,115.203C82.549,114.741 82.898,114.392 83.337,114.134C83.775,113.875 84.259,113.751 84.81,113.751C85.361,113.751 85.845,113.875 86.283,114.134C86.722,114.392 87.059,114.741 87.307,115.191C87.554,115.653 87.678,116.17 87.678,116.755L87.667,117.003ZM84.81,114.437C84.236,114.437 83.764,114.617 83.382,114.977C82.988,115.349 82.774,115.821 82.718,116.406L86.913,116.406C86.857,115.821 86.643,115.349 86.261,114.977C85.867,114.617 85.384,114.437 84.81,114.437Z" style="fill:rgb(153,139,126);fill-rule:nonzero;"/>
    <path d="M91.421,113.751C92.197,113.751 92.782,113.942 93.198,114.325C93.614,114.719 93.817,115.293 93.817,116.046L93.817,119.714L93.052,119.714L93.052,118.792C92.872,119.096 92.613,119.343 92.264,119.512C91.916,119.681 91.5,119.771 91.016,119.771C90.352,119.771 89.835,119.613 89.441,119.298C89.048,118.983 88.856,118.567 88.856,118.049C88.856,117.543 89.036,117.138 89.408,116.834C89.767,116.53 90.341,116.373 91.14,116.373L93.018,116.373L93.018,116.013C93.018,115.506 92.872,115.113 92.591,114.842C92.309,114.584 91.893,114.449 91.342,114.449C90.971,114.449 90.611,114.505 90.262,114.629C89.914,114.764 89.621,114.932 89.374,115.146L89.014,114.55C89.318,114.291 89.677,114.1 90.094,113.954C90.51,113.819 90.96,113.751 91.421,113.751ZM91.14,119.141C91.59,119.141 91.972,119.039 92.298,118.825C92.624,118.623 92.86,118.33 93.018,117.937L93.018,116.969L91.162,116.969C90.15,116.969 89.644,117.318 89.644,118.027C89.644,118.375 89.779,118.645 90.037,118.837C90.296,119.039 90.667,119.141 91.14,119.141Z" style="fill:rgb(153,139,126);fill-rule:nonzero;"/>
    <rect x="96.199" y="111.366" width="1" height="8.349" style="fill:rgb(153,139,126);"/>
    <path d="M99.436,113.796L100.235,113.796L100.235,119.714L99.436,119.714L99.436,113.796ZM99.841,112.502C99.672,112.502 99.537,112.446 99.425,112.333C99.312,112.221 99.256,112.086 99.256,111.928C99.256,111.782 99.312,111.647 99.425,111.535C99.537,111.422 99.672,111.366 99.841,111.366C100.01,111.366 100.145,111.422 100.257,111.523C100.37,111.636 100.426,111.771 100.426,111.917C100.426,112.086 100.37,112.221 100.257,112.333C100.145,112.446 100.01,112.502 99.841,112.502Z" style="fill:rgb(153,139,126);fill-rule:nonzero;"/>
    <path d="M105.687,113.751C106.43,113.751 107.026,113.965 107.464,114.392C107.903,114.831 108.117,115.461 108.117,116.283L108.117,119.714L107.318,119.714L107.318,116.361C107.318,115.743 107.161,115.281 106.857,114.955C106.553,114.629 106.115,114.471 105.541,114.471C104.9,114.471 104.405,114.662 104.034,115.034C103.663,115.416 103.472,115.945 103.472,116.609L103.472,119.714L102.673,119.714L102.673,113.796L103.438,113.796L103.438,114.887C103.652,114.527 103.955,114.246 104.349,114.044C104.731,113.852 105.181,113.751 105.687,113.751Z" style="fill:rgb(153,139,126);fill-rule:nonzero;"/>
    <path d="M115.999,113.796L115.999,118.994C115.999,119.996 115.752,120.749 115.268,121.233C114.773,121.717 114.031,121.953 113.041,121.953C112.49,121.953 111.973,121.875 111.489,121.717C110.994,121.548 110.589,121.323 110.285,121.042L110.69,120.434C110.972,120.693 111.32,120.884 111.736,121.031C112.141,121.177 112.569,121.245 113.019,121.245C113.772,121.245 114.323,121.076 114.672,120.727C115.021,120.367 115.201,119.827 115.201,119.096L115.201,118.342C114.953,118.713 114.627,119.005 114.233,119.197C113.828,119.388 113.378,119.489 112.895,119.489C112.344,119.489 111.838,119.366 111.388,119.118C110.927,118.882 110.567,118.533 110.319,118.094C110.049,117.655 109.925,117.16 109.925,116.609C109.925,116.058 110.049,115.563 110.319,115.124C110.567,114.685 110.927,114.347 111.376,114.111C111.826,113.875 112.332,113.751 112.895,113.751C113.401,113.751 113.851,113.852 114.256,114.055C114.661,114.257 114.987,114.55 115.234,114.932L115.234,113.796L115.999,113.796ZM112.974,118.78C113.401,118.78 113.783,118.69 114.132,118.499C114.481,118.319 114.739,118.06 114.942,117.734C115.133,117.408 115.223,117.025 115.223,116.609C115.223,116.193 115.133,115.81 114.942,115.484C114.739,115.158 114.481,114.91 114.143,114.719C113.795,114.539 113.412,114.449 112.974,114.449C112.546,114.449 112.164,114.539 111.826,114.719C111.478,114.899 111.219,115.158 111.028,115.484C110.837,115.81 110.735,116.193 110.735,116.609C110.735,117.025 110.837,117.408 111.028,117.734C111.219,118.06 111.478,118.319 111.826,118.499C112.164,118.69 112.546,118.78 112.974,118.78Z" style="fill:rgb(153,139,126);fill-rule:nonzero;"/>
    <path d="M125.619,117.61L121.232,117.61L120.288,119.714L119.422,119.714L123.021,111.838L123.842,111.838L127.441,119.714L126.564,119.714L125.619,117.61ZM125.315,116.935L123.426,112.705L121.536,116.935L125.315,116.935Z" style="fill:rgb(153,139,126);fill-rule:nonzero;"/>
    <path d="M129.553,114.955C129.745,114.561 130.026,114.257 130.397,114.055C130.757,113.852 131.218,113.751 131.769,113.751L131.769,114.527L131.578,114.516C130.959,114.516 130.464,114.707 130.116,115.09C129.767,115.473 129.587,116.013 129.587,116.699L129.587,119.714L128.788,119.714L128.788,113.796L129.553,113.796L129.553,114.955Z" style="fill:rgb(153,139,126);fill-rule:nonzero;"/>
    <path d="M136.795,119.354C136.648,119.489 136.457,119.591 136.243,119.658C136.018,119.737 135.782,119.771 135.546,119.771C134.995,119.771 134.568,119.624 134.264,119.321C133.96,119.017 133.814,118.6 133.814,118.049L133.814,114.471L132.757,114.471L132.757,113.796L133.814,113.796L133.814,112.502L134.613,112.502L134.613,113.796L136.412,113.796L136.412,114.471L134.613,114.471L134.613,118.004C134.613,118.353 134.703,118.623 134.882,118.803C135.051,118.994 135.31,119.084 135.636,119.084C135.805,119.084 135.962,119.062 136.12,119.005C136.266,118.949 136.401,118.882 136.513,118.78L136.795,119.354Z" style="fill:rgb(153,139,126);fill-rule:nonzero;"/>
    <path d="M140.043,119.771C139.559,119.771 139.109,119.703 138.671,119.557C138.232,119.422 137.883,119.253 137.636,119.039L137.996,118.409C138.243,118.6 138.558,118.758 138.929,118.882C139.3,119.005 139.694,119.073 140.099,119.073C140.639,119.073 141.044,118.983 141.302,118.814C141.561,118.645 141.685,118.409 141.685,118.105C141.685,117.892 141.617,117.712 141.471,117.588C141.325,117.464 141.145,117.374 140.931,117.307C140.718,117.25 140.425,117.183 140.065,117.127C139.582,117.037 139.199,116.946 138.907,116.845C138.614,116.755 138.367,116.598 138.164,116.373C137.951,116.148 137.85,115.833 137.85,115.439C137.85,114.944 138.052,114.539 138.468,114.224C138.884,113.909 139.458,113.751 140.189,113.751C140.571,113.751 140.954,113.796 141.336,113.897C141.719,114.01 142.034,114.134 142.281,114.302L141.932,114.944C141.449,114.606 140.864,114.437 140.189,114.437C139.683,114.437 139.289,114.527 139.042,114.707C138.783,114.887 138.648,115.124 138.648,115.416C138.648,115.641 138.727,115.821 138.873,115.956C139.019,116.091 139.199,116.193 139.413,116.249C139.627,116.316 139.93,116.384 140.313,116.451C140.785,116.541 141.168,116.631 141.449,116.721C141.73,116.811 141.977,116.969 142.18,117.183C142.382,117.397 142.483,117.7 142.483,118.083C142.483,118.6 142.27,119.005 141.842,119.309C141.404,119.613 140.808,119.771 140.043,119.771Z" style="fill:rgb(153,139,126);fill-rule:nonzero;"/>
    <path d="M150.97,119.782C150.194,119.782 149.485,119.613 148.867,119.264C148.237,118.915 147.742,118.443 147.393,117.824C147.033,117.217 146.854,116.53 146.854,115.776C146.854,115.023 147.033,114.336 147.393,113.717C147.742,113.11 148.237,112.637 148.867,112.288C149.497,111.94 150.205,111.771 150.981,111.771C151.566,111.771 152.106,111.872 152.601,112.063C153.096,112.255 153.512,112.547 153.861,112.918L153.332,113.447C152.713,112.828 151.937,112.513 151.004,112.513C150.385,112.513 149.812,112.66 149.305,112.941C148.799,113.222 148.394,113.616 148.113,114.111C147.821,114.606 147.675,115.158 147.675,115.776C147.675,116.395 147.821,116.946 148.113,117.442C148.394,117.937 148.799,118.33 149.305,118.612C149.812,118.893 150.385,119.039 151.004,119.039C151.949,119.039 152.725,118.724 153.332,118.094L153.861,118.623C153.512,118.994 153.096,119.287 152.601,119.478C152.095,119.681 151.555,119.782 150.97,119.782Z" style="fill:rgb(153,139,126);fill-rule:nonzero;"/>
    <path d="M160.573,117.003L155.624,117.003C155.669,117.622 155.905,118.117 156.333,118.488C156.76,118.87 157.3,119.062 157.952,119.062C158.324,119.062 158.661,118.994 158.965,118.859C159.268,118.735 159.538,118.544 159.763,118.285L160.213,118.803C159.955,119.118 159.617,119.354 159.235,119.523C158.841,119.692 158.402,119.771 157.93,119.771C157.323,119.771 156.783,119.636 156.322,119.377C155.849,119.118 155.478,118.769 155.219,118.308C154.961,117.847 154.826,117.329 154.826,116.755C154.826,116.181 154.949,115.664 155.208,115.203C155.456,114.741 155.804,114.392 156.243,114.134C156.682,113.875 157.165,113.751 157.716,113.751C158.267,113.751 158.751,113.875 159.19,114.134C159.628,114.392 159.966,114.741 160.213,115.191C160.461,115.653 160.584,116.17 160.584,116.755L160.573,117.003ZM157.716,114.437C157.143,114.437 156.67,114.617 156.288,114.977C155.894,115.349 155.68,115.821 155.624,116.406L159.82,116.406C159.763,115.821 159.55,115.349 159.167,114.977C158.774,114.617 158.29,114.437 157.716,114.437Z" style="fill:rgb(153,139,126);fill-rule:nonzero;"/>
    <path d="M165.441,113.751C166.183,113.751 166.779,113.965 167.218,114.392C167.657,114.831 167.87,115.461 167.87,116.283L167.87,119.714L167.072,119.714L167.072,116.361C167.072,115.743 166.914,115.281 166.611,114.955C166.307,114.629 165.868,114.471 165.295,114.471C164.654,114.471 164.159,114.662 163.787,115.034C163.416,115.416 163.225,115.945 163.225,116.609L163.225,119.714L162.427,119.714L162.427,113.796L163.191,113.796L163.191,114.887C163.405,114.527 163.709,114.246 164.102,114.044C164.485,113.852 164.935,113.751 165.441,113.751Z" style="fill:rgb(153,139,126);fill-rule:nonzero;"/>
    <path d="M173.368,119.354C173.222,119.489 173.031,119.591 172.817,119.658C172.592,119.737 172.356,119.771 172.12,119.771C171.569,119.771 171.141,119.624 170.838,119.321C170.534,119.017 170.388,118.6 170.388,118.049L170.388,114.471L169.331,114.471L169.331,113.796L170.388,113.796L170.388,112.502L171.186,112.502L171.186,113.796L172.986,113.796L172.986,114.471L171.186,114.471L171.186,118.004C171.186,118.353 171.276,118.623 171.456,118.803C171.625,118.994 171.884,119.084 172.21,119.084C172.379,119.084 172.536,119.062 172.694,119.005C172.84,118.949 172.975,118.882 173.087,118.78L173.368,119.354Z" style="fill:rgb(153,139,126);fill-rule:nonzero;"/>
    <path d="M179.968,117.003L175.019,117.003C175.064,117.622 175.3,118.117 175.728,118.488C176.155,118.87 176.695,119.062 177.347,119.062C177.718,119.062 178.056,118.994 178.36,118.859C178.663,118.735 178.933,118.544 179.158,118.285L179.608,118.803C179.349,119.118 179.012,119.354 178.629,119.523C178.236,119.692 177.797,119.771 177.325,119.771C176.717,119.771 176.178,119.636 175.716,119.377C175.244,119.118 174.873,118.769 174.614,118.308C174.355,117.847 174.221,117.329 174.221,116.755C174.221,116.181 174.344,115.664 174.603,115.203C174.85,114.741 175.199,114.392 175.638,114.134C176.076,113.875 176.56,113.751 177.111,113.751C177.662,113.751 178.146,113.875 178.584,114.134C179.023,114.392 179.361,114.741 179.608,115.191C179.855,115.653 179.979,116.17 179.979,116.755L179.968,117.003ZM177.111,114.437C176.537,114.437 176.065,114.617 175.683,114.977C175.289,115.349 175.075,115.821 175.019,116.406L179.214,116.406C179.158,115.821 178.944,115.349 178.562,114.977C178.168,114.617 177.685,114.437 177.111,114.437Z" style="fill:rgb(153,139,126);fill-rule:nonzero;"/>
    <path d="M182.587,114.955C182.778,114.561 183.059,114.257 183.431,114.055C183.79,113.852 184.252,113.751 184.803,113.751L184.803,114.527L184.612,114.516C183.993,114.516 183.498,114.707 183.149,115.09C182.801,115.473 182.621,116.013 182.621,116.699L182.621,119.714L181.822,119.714L181.822,113.796L182.587,113.796L182.587,114.955Z" style="fill:rgb(153,139,126);fill-rule:nonzero;"/>
    <path d="M123.418,54.017C117.818,63.296 104.016,68.932 85.016,67.068C66.194,65.221 54.617,60.592 54.617,54.017C54.617,47.443 70.02,42.114 89.018,42.114C108.016,42.114 129.546,43.865 123.418,54.017" style="fill:rgb(92,135,39);fill-rule:nonzero;"/>
    <path  d="M122.595,27.839C118.144,20.464 107.176,15.984 92.074,17.466C77.116,18.934 67.915,22.613 67.915,27.839C67.915,33.064 80.155,37.298 95.255,37.298C110.354,37.298 127.466,35.907 122.595,27.839" style="fill:rgb(153,139,126);fill-rule:nonzero;"/>
    <path  d="M63.477,6.872C66.559,11.977 74.153,15.078 84.607,14.052C94.963,13.036 101.333,10.488 101.333,6.872C101.333,3.255 92.858,0.322 82.406,0.322C71.953,0.322 60.107,1.285 63.477,6.872" style="fill:rgb(0,82,149);fill-rule:nonzero;"/>
</svg>
