<svg height="100%" viewBox="0 0 27 20" xmlns="http://www.w3.org/2000/svg" xmlns:xlink="http://www.w3.org/1999/xlink" style="fill-rule:evenodd;clip-rule:evenodd;stroke-linejoin:round;stroke-miterlimit:2;">
	<path d="M24.898,0L2.103,0C0.946,0 0,0.953 0,2.119L0,17.881C0,19.046 0.947,20 2.103,20L24.897,20C26.054,20 27,19.046 27,17.881L27,2.118C27.001,0.953 26.054,0 24.898,0ZM23.771,15.73C24.064,16.008 24.078,16.472 23.803,16.768C23.659,16.923 23.465,17 23.271,17C23.092,17 22.913,16.934 22.772,16.8L16.787,11.137L14.196,13.685C14.055,13.824 13.871,13.893 13.688,13.893C13.509,13.893 13.33,13.827 13.189,13.694L10.232,10.896L4.238,16.791C4.096,16.931 3.913,17 3.729,17C3.539,17 3.35,16.925 3.207,16.778C2.926,16.487 2.932,16.022 3.22,15.739L9.168,9.89L3.231,4.27C2.937,3.992 2.922,3.528 3.198,3.232C3.473,2.936 3.934,2.922 4.228,3.199L13.678,12.142L22.762,3.209C23.05,2.925 23.512,2.932 23.793,3.222C24.074,3.512 24.068,3.977 23.78,4.261L17.832,10.11L23.771,15.73Z" style="fill:rgb(73,134,140);fill-rule:nonzero;"/>
</svg>