<svg viewBox="0 0 20 19" xmlns="http://www.w3.org/2000/svg" xmlns:xlink="http://www.w3.org/1999/xlink"><path d="M3.004,0.017C2.872,-0.009 2.714,-0.009 2.608,0.044C1.186,0.597 0.29,2.626 0.079,4.022C-0.58,8.554 3.004,12.48 6.297,15.063C9.222,17.355 14.834,21.123 18.154,17.487C18.576,17.039 19.077,16.38 19.05,15.721C18.971,14.615 17.944,13.824 17.153,13.218C16.547,12.77 15.282,11.532 14.492,11.558C13.781,11.585 13.333,12.322 12.885,12.77L12.094,13.561C11.962,13.693 10.276,12.586 10.092,12.454C9.407,12.006 8.748,11.506 8.168,10.952C7.588,10.399 7.062,9.793 6.614,9.16C6.482,8.976 5.402,7.369 5.507,7.237C5.507,7.237 6.429,6.236 6.693,5.84C7.246,4.997 7.668,4.339 7.035,3.337C6.798,2.968 6.508,2.679 6.192,2.362C5.639,1.835 5.085,1.282 4.453,0.834C4.11,0.571 3.531,0.096 3.004,0.017Z" style="fill:rgb(73,134,140);fill-rule:nonzero;"/></svg>