<svg viewBox="0 0 466 504" xmlns="http://www.w3.org/2000/svg" xmlns:xlink="http://www.w3.org/1999/xlink">
  <title>Phone icon</title>
  <path d="M455.56,392.56 L452.7592,386.9584 C444.9194,368.4784 348.5992,340.4784 340.7592,339.9194 L334.599,340.47799 C322.837,342.71629 309.958,353.35699 284.759,375.19699 C279.7199,379.67749 272.997,380.79859 266.837,377.43529 C233.798,358.95529 193.478,321.99429 173.317,299.59529 C151.477,275.51729 125.157,235.75529 112.837,203.83329 C110.5987,197.67309 112.837,190.95429 117.3175,186.47429 C145.8765,160.71229 158.1965,148.39629 159.3175,134.95429 C159.87609,127.11449 143.0795,27.99429 125.7155,18.47429 L120.6764,15.11489 C109.4774,7.83369 92.6764,-2.80711 74.1964,1.11489 C69.7159,2.23599 65.2355,3.91569 61.3174,6.15399 C49.0014,14.00169 18.2004,35.28299 4.2004,62.71999 C-4.198,80.07899 -8.1196,237.43999 109.4804,370.15999 C225.9604,501.75999 369.8804,507.35999 391.1604,502.87999 L391.71899,502.87999 L393.39869,502.3214 C422.51969,491.6804 447.16069,464.2434 456.67969,452.4814 C474.03869,431.7624 462.28129,406.5594 455.55859,392.5594 L455.56,392.56 Z" style="fill:rgb(73,134,140);" ></path>
</svg>