<?xml version="1.0" encoding="UTF-8" standalone="no"?>
<!DOCTYPE svg PUBLIC "-//W3C//DTD SVG 1.1//EN" "http://www.w3.org/Graphics/SVG/1.1/DTD/svg11.dtd">
<svg width="100%" height="100%" viewBox="0 0 34 38" version="1.1" xmlns="http://www.w3.org/2000/svg" xmlns:xlink="http://www.w3.org/1999/xlink" xml:space="preserve" xmlns:serif="http://www.serif.com/" style="fill-rule:evenodd;clip-rule:evenodd;stroke-linejoin:round;stroke-miterlimit:2;">
    <g id="Symbols">
        <path d="M24.351,20.076L32.493,13.631C32.981,13.244 33.176,12.589 32.976,11.997C32.777,11.404 32.229,11.002 31.606,10.992L21.363,10.827L17.914,0.987C17.706,0.396 17.15,0 16.526,0C15.903,0 15.346,0.396 15.139,0.987L11.688,10.827L1.447,10.992C0.825,11.002 0.277,11.404 0.077,11.997C-0.122,12.59 0.072,13.244 0.56,13.631L8.698,20.076L5.811,29.835C5.634,30.432 5.849,31.077 6.348,31.447C6.847,31.816 7.523,31.832 8.038,31.486L16.526,25.789L25.015,31.486C25.263,31.653 25.548,31.736 25.832,31.736C26.139,31.736 26.447,31.638 26.705,31.447C27.204,31.076 27.419,30.432 27.242,29.835L24.351,20.076Z" style="fill:rgb(143,199,194);fill-rule:nonzero;"/>
        <path d="M16.527,29.085C15.715,29.085 15.056,29.747 15.056,30.563L15.056,35.475C15.056,36.291 15.715,36.953 16.527,36.953C17.34,36.953 17.998,36.291 17.998,35.475L17.998,30.563C17.998,29.747 17.34,29.085 16.527,29.085Z" style="fill:rgb(143,199,194);fill-rule:nonzero;"/>
        <path d="M11.315,32.227C10.502,32.227 9.844,32.89 9.844,33.706L9.844,36.522C9.844,37.338 10.502,38 11.315,38C12.127,38 12.786,37.338 12.786,36.522L12.786,33.706C12.786,32.89 12.127,32.227 11.315,32.227Z" style="fill:rgb(143,199,194);fill-rule:nonzero;"/>
        <path d="M21.741,32.227C20.929,32.227 20.27,32.89 20.27,33.706L20.27,36.522C20.27,37.338 20.929,38 21.741,38C22.554,38 23.212,37.338 23.212,36.522L23.212,33.706C23.212,32.89 22.554,32.227 21.741,32.227Z" style="fill:rgb(143,199,194);fill-rule:nonzero;"/>
        <path d="M32.046,20.984L29.399,20.102C28.624,19.845 27.795,20.264 27.539,21.039C27.283,21.813 27.701,22.651 28.471,22.908L31.119,23.79C31.273,23.842 31.429,23.866 31.582,23.866C32.199,23.866 32.774,23.473 32.978,22.852C33.234,22.079 32.818,21.242 32.046,20.984Z" style="fill:rgb(143,199,194);fill-rule:nonzero;"/>
        <path d="M23.327,8.039C23.589,8.232 23.893,8.325 24.196,8.325C24.648,8.325 25.095,8.115 25.383,7.72L27.02,5.475C27.5,4.816 27.357,3.891 26.703,3.408C26.049,2.926 25.128,3.068 24.647,3.727L23.011,5.973C22.53,6.632 22.671,7.556 23.327,8.039Z" style="fill:rgb(143,199,194);fill-rule:nonzero;"/>
        <path d="M7.673,7.72C7.96,8.115 8.408,8.325 8.86,8.325C9.162,8.325 9.466,8.232 9.729,8.039C10.384,7.556 10.526,6.632 10.046,5.973L8.409,3.727C7.929,3.068 7.009,2.926 6.353,3.408C5.698,3.891 5.556,4.816 6.036,5.475L7.673,7.72Z" style="fill:rgb(143,199,194);fill-rule:nonzero;"/>
        <path d="M3.657,20.102L1.009,20.984C0.238,21.241 -0.18,22.079 0.076,22.853C0.281,23.474 0.856,23.867 1.472,23.867C1.626,23.867 1.782,23.842 1.936,23.792L4.584,22.908C5.355,22.652 5.773,21.814 5.517,21.04C5.261,20.264 4.43,19.847 3.657,20.102Z" style="fill:rgb(143,199,194);fill-rule:nonzero;"/>
    </g>
</svg>
